<?xml version="1.0" encoding="utf-8"?>
<!-- Generator: Adobe Illustrator 18.1.1, SVG Export Plug-In . SVG Version: 6.00 Build 0)  -->
<!DOCTYPE svg PUBLIC "-//W3C//DTD SVG 1.1//EN" "http://www.w3.org/Graphics/SVG/1.1/DTD/svg11.dtd">
<svg version="1.1" id="Layer_1" xmlns="http://www.w3.org/2000/svg" xmlns:xlink="http://www.w3.org/1999/xlink" x="0px" y="0px"
	 viewBox="0 0 37.7 34.3" enable-background="new 0 0 37.7 34.3" xml:space="preserve">
<g>
	<path fill-rule="evenodd" clip-rule="evenodd" fill="#6F6F70" d="M8.3,7.8h25c1.9,0,3.5-1.6,3.5-3.5c0-1.9-1.6-3.5-3.5-3.5h-25
		c-1.9,0-3.5,1.6-3.5,3.5C4.8,6.3,6.3,7.8,8.3,7.8z"/>
	<path fill-rule="evenodd" clip-rule="evenodd" fill="#6F6F70" d="M33.3,13.8h-11c-1.9,0-3.5,1.6-3.5,3.5c0,1.9,1.6,3.5,3.5,3.5h11
		c1.9,0,3.5-1.6,3.5-3.5C36.8,15.4,35.2,13.8,33.3,13.8z"/>
	<path fill-rule="evenodd" clip-rule="evenodd" fill="#6F6F70" d="M33.3,26.8h-3c-1.9,0-3.5,1.6-3.5,3.5c0,1.9,1.6,3.5,3.5,3.5h3
		c1.9,0,3.5-1.6,3.5-3.5C36.8,28.4,35.2,26.8,33.3,26.8z"/>
	<path fill-rule="evenodd" clip-rule="evenodd" fill="#6F6F70" d="M13.4,24.6l-3.7,3.7v-13c0-0.8-0.7-1.5-1.5-1.5
		c-0.8,0-1.5,0.7-1.5,1.5v12.9l-3.6-3.6C2.5,24,1.6,24,1,24.6c-0.6,0.6-0.6,1.5,0,2.1l6.1,6.1c0.2,0.2,0.3,0.3,0.5,0.3
		c0.6,0.3,1.2,0.2,1.7-0.3l1.4-1.4l4.7-4.7c0.6-0.6,0.6-1.5,0-2.1C15,24,14,24,13.4,24.6z"/>
</g>
</svg>
